<?xml version="1.0" encoding="UTF-8" standalone="no"?>
<svg
   width="100%" viewBox="0 650 1500 200"
   version="1.1"
   id="svg10"
   xmlns:inkscape="http://www.inkscape.org/namespaces/inkscape"
   xmlns:sodipodi="http://sodipodi.sourceforge.net/DTD/sodipodi-0.dtd"
   xmlns="http://www.w3.org/2000/svg"
   xmlns:svg="http://www.w3.org/2000/svg">
  <sodipodi:namedview
     id="namedview10"
     pagecolor="#ffffff"
     bordercolor="#000000"
     borderopacity="0.25"
     inkscape:showpageshadow="2"
     inkscape:pageopacity="0.0"
     inkscape:pagecheckerboard="0"
     inkscape:deskcolor="#d1d1d1" />
  <defs
     id="defs2">
    <linearGradient
       id="stgra_3864"
       x1="0%"
       y1="0%"
       x2="100%"
       y2="0%"
       gradientUnits="objectBoundingBox">
      <stop
         offset="0%"
         style="stop-color:#0072ff"
         id="stop1" />
      <stop
         offset="100%"
         style="stop-color:#6b00ff"
         id="stop2" />
    </linearGradient>
  </defs>
  <g
     transform="translate(100.07548550906972, 653.5939489595962) scale(0.667169903393798)"
     id="g10">
    <g
       transform="translate(0, 0) scale(1 1) rotate(0)"
       fill="url(#stgra_8055)"
       id="g8">
      <svg
         width="400"
         height="289"
         viewBox="0 0 400 289"
         version="1.1"
         id="svg7">
        <defs
           id="defs4">
          <linearGradient
             id="stgra_8055"
             x1="0%"
             y1="0%"
             x2="100%"
             y2="0%"
             gradientUnits="userSpaceOnUse">
            <stop
               offset="0%"
               style="stop-color:#0072ff"
               id="stop3" />
            <stop
               offset="100%"
               style="stop-color:#6b00ff"
               id="stop4" />
          </linearGradient>
        </defs>
        <g
           id="g7">
          <g
             id="g6">
            <g
               id="g4">
              <path
                 style="stroke: none; stroke-width: 1; stroke-dasharray: none; stroke-linecap: butt; stroke-dashoffset: 0; stroke-linejoin: miter; stroke-miterlimit: 4;  fill-rule: nonzero; opacity: 1"
                 d="M 183.67595788959065,0.0 C 156.6631638733928,2.5726470491616737 134.63487351494572,11.576911721227646 110.19472654790954,29.82662672621848 C 91.22145456034198,44.05658071689419 73.77569175821421,67.45158982020837 64.12826532385785,91.730946346672 C 60.188899529829,101.78034888245986 55.927952854654876,119.78887822659175 55.36518631265076,129.35590944066183 L 54.80241977064665,137.7974075707237 L 31.487805887618748,138.1993836721552 C 4.635802311993444,138.68175499387303 3.9926405497030544,138.84254543444564 1.1788078396824346,145.19376783706355 C -1.3134439891929617,150.90182847739118 0.2140651962468212,156.44909867714603 5.1181736337112795,159.66490748859815 C 7.1280541408688975,161.03162623346532 11.71058169718819,161.11202145375165 66.37933149187435,161.51399755518315 L 125.46981840230714,161.9159736566147 L 127.23851324860581,167.94561517808734 C 128.20325589204148,171.2418192098258 129.89155551805382,176.86948462986703 130.8562981614895,180.32647910217804 C 135.1172448366635,195.03880441457153 147.01573743903637,199.62133197089088 156.18079255167495,190.13469597710701 C 160.28094878627647,185.873749301933 161.24569142971208,182.65794049048083 176.84236416525485,121.87915395403564 C 178.77184945212613,114.48279368769573 180.62093951871114,108.29236172565038 180.94252039985636,108.2119665053641 C 182.30923914472348,107.89038562421888 192.9214082225155,150.49985237595956 204.25713428288427,201.79200291862094 C 206.66899089147333,212.7257528775582 209.40242838120767,223.09673629449134 210.286775804357,224.86543114079 C 214.6281176998174,233.38732449113814 223.793172812456,234.59325279543276 229.9836047745014,227.3576829696654 C 232.79743748452196,223.98108371764073 233.19941358595347,222.85555063363245 240.43498341172065,195.68196617686203 C 244.213558765177,181.61280262675893 251.6903142518032,152.99210420483496 253.05703299667024,147.6056244456526 C 253.45900909810175,145.99772003992655 254.18256608067853,144.6310012950595 254.50414696182375,144.6310012950595 C 254.90612306325525,144.6310012950595 255.8708657066908,147.28404356450744 256.5944226892676,150.41945715567329 C 257.3983748921306,153.6352659671254 258.52390797613884,157.49423654086797 259.0866745181431,158.86095528573514 L 260.13181238186496,161.51399755518315 L 325.33233603405677,161.51399755518315 C 388.52297917909107,161.51399755518315 390.6132549065351,161.43360233489682 393.58787805712814,159.90609314945704 C 395.7585490048584,158.86095528573514 397.28605819029826,157.25305088000908 398.4115912743065,154.84119427142002 C 400.50186700175027,150.5802475962459 400.50186700175027,149.21352885137867 398.57238171487904,144.87218695591832 C 395.67815378457215,138.6013597735867 395.8389442251447,138.68175499387303 366.73587448150295,138.1993836721552 L 341.00940398988587,137.7974075707237 L 340.4466374478818,129.59709510152072 C 339.16031392330103,109.65908047051755 332.08553453810634,88.51513753521976 319.9458562748746,68.09475158249876 C 313.7554243128292,57.56297772499312 307.16301624935227,49.201874815217536 297.5959850352823,39.71523882143384 C 288.7525108037888,30.871764589940483 282.8032645026025,26.289237033621134 272.2714906450967,20.018409851289505 C 244.77632530718105,3.6177849128836783 215.19088424182146,-3.055018370879452 183.67595788959065,0.0 M 223.23040627045177,25.083308729326575 C 234.48573711053425,27.816746219060917 242.0428878174467,30.550183708795203 252.17268557352097,35.775873027405 C 274.20097593196806,47.19199430806003 294.2193857832575,67.53198504049465 305.15313574219476,89.56027539894177 C 312.1475199071032,103.70983416933115 316.40846658227724,119.14571646430136 316.73004746342247,131.44618516810573 L 316.890837903995,137.7974075707237 L 296.4704519512741,137.7974075707237 L 276.050065998553,137.7974075707237 L 274.1205807116818,130.5618377449564 C 267.9301487496364,107.1668286416421 266.9654061062008,105.07655291419832 260.8553693644417,101.94113932303247 C 253.61979953867447,98.24295918986252 243.972373104318,101.78034888245986 240.43498341172065,109.25710436908605 C 239.47024076828515,111.26698487624361 237.37996504084114,117.9397881600068 235.6916654148288,124.13022012205215 C 234.08376100910274,130.3206520840975 230.7875569773644,142.62112078790187 228.37570036877517,151.46459501939518 C 225.96384376018605,160.30806925088854 223.551987151597,169.47312436352712 223.0696158298792,171.72419053154368 C 222.50684928787499,174.05565191984647 221.8636875255847,175.9851372067177 221.6225018647257,175.9851372067177 C 221.38131620386693,175.9851372067177 220.0145974589997,170.8398431083943 218.56748349384614,164.48862070577627 C 217.1203695286928,158.21779352344464 214.30653681867213,146.15851048049922 212.3770515318009,137.7974075707237 C 210.36717102464328,129.35590944066183 207.07096699290489,115.12595544998618 204.81990082488844,106.04129555763393 C 202.6492298771582,96.95663566528162 199.43342106570609,83.04826255575125 197.5039357788348,75.08913574740717 C 195.57445049196352,66.48684717677276 193.40377954423334,59.251277351005456 192.27824646022512,57.32179206413417 C 187.6153236836195,49.282270035503814 176.03841196239185,49.362665255790205 171.37548918578628,57.402187284420506 C 170.249956101778,59.251277351005456 167.75770427290266,67.04961371877687 165.82821898603132,74.76755486626195 C 163.8183384788738,82.48549601374714 159.9593679051312,97.27821654642685 157.30632563568318,107.64919996335999 C 154.57288814594895,118.02018338029308 150.95510323306527,131.9285564898235 149.26680360705288,138.44056933301414 C 146.45297089703232,149.3743192919514 145.64901869416926,151.94696634111295 145.0058569318788,150.9822236976774 C 144.92546171159253,150.8214332571048 143.96071906815686,147.9272053267979 142.83518598414864,144.6310012950595 L 140.82530547699102,138.6013597735867 L 109.7123552261917,138.3601741127278 L 78.51900975510605,138.1993836721552 L 78.51900975510605,133.4560656752633 C 78.51900975510605,127.98919069579466 80.8504711434089,115.76911721227663 83.82509429400207,106.04129555763393 C 88.64880751118031,90.28383238151844 99.26097658897234,73.32044090110855 113.81251146079322,58.36692992785618 C 132.46420256721555,39.152472279429674 152.8845885199365,28.5403032016377 180.62093951871114,23.555799543886792 C 190.4291563936401,21.787104697588177 212.69863241294613,22.59105690045118 223.23040627045177,25.083308729326575"
                 class="c1"
                 id="i1" />
            </g>
            <g
               id="g5">
              <path
                 style="stroke: none; stroke-width: 1; stroke-dasharray: none; stroke-linecap: butt; stroke-dashoffset: 0; stroke-linejoin: miter; stroke-miterlimit: 4;  fill-rule: nonzero; opacity: 1"
                 d="M 78.92500561755199,201.08854474111575 C 75.9503824669587,202.93763480770076 73.94050195980114,206.8770006017296 73.94050195980114,210.89676161604473 C 73.94050195980114,216.20284615494086 81.01528134499583,227.53857221530967 93.15495960822764,241.68813098569893 C 110.19874630892386,261.46535517612944 137.2919355454081,277.54439923339015 164.94789132389636,284.2975977374395 C 217.2047845099934,297.0804377629618 270.4264203395261,281.483765027419 305.1571555032091,243.21564017113866 C 318.3419716301628,228.74450051960417 326.38149365879303,216.84600791723125 326.38149365879303,212.022294700053 C 326.38149365879303,205.18870097571732 322.20094220390536,200.28459253825275 316.09090546214634,199.6414307759623 C 309.5788926189558,199.0786642339582 307.40822167122565,200.60617341939798 300.25304706574457,211.37913293776262 C 292.53510591825955,222.95604465899027 277.9031758261523,237.90955563224264 267.69298284979175,244.6627541362921 C 253.06105275768468,254.31018057064858 236.09766127727463,261.1437742949842 220.90296464316341,263.47523568328705 C 210.13000512479877,265.08314008901306 184.24274419260914,264.6007687672953 175.31887474082944,262.5908882601378 C 160.36536376757707,259.214289008113 145.65303845518363,252.78267138520874 131.82506056593948,243.61761627257016 C 121.37368192872,236.70362732794814 107.22412315833068,222.4736733372725 100.149343773136,211.78110903919412 C 93.07456438794131,201.08854474111575 91.14507910107002,199.4806403353897 85.75859934188773,199.4806403353897 C 82.94476663186711,199.4806403353897 80.69370046385066,200.04340687739386 78.92500561755199,201.08854474111575"
                 class="c1"
                 id="i2" />
            </g>
          </g>
        </g>
      </svg>
    </g>
    <g
       transform="translate(491.74285714285713, 205.60285714285715) rotate(0)"
       id="g9">
      <path
         d="m 5.1,0 v -12.15 l 4.95,-0.45 q 4.35,-0.45 4.35,-4.2 V -86.55 L 5.85,-87 V -99.75 H 78.3 v 24.9 L 63,-73.8 v -6 q 0,-2.55 -0.75,-3.6 -0.75,-1.05 -3.6,-1.05 H 32.7 v 26.55 h 36.9 v 15.3 H 32.7 v 29.4 l 13.35,0.45 V 0 Z m 148.64989,-72.45 v 55.8 q 0,2.4 0.75,3.3 0.9,0.9 3,1.05 l 4.8,0.3 V 0 h -23.85 v -8.7 l -0.45,-0.15 q -7.5,10.8 -20.55,10.8 -15.3,0 -22.65,-9.75 -7.35,-9.75 -7.35,-26.7 0,-20.4 9.9,-31.8 9.9,-11.4 29.7,-11.4 12.75,0 26.7,5.25 z m -17.4,48.6 V -62.7 q -4.2,-1.95 -11.55,-1.95 -10.05,0 -14.55,8.1 -4.5,8.1 -4.5,21.45 0,24.3 15.6,24.3 6.6,0 10.8,-3.9 4.2,-4.05 4.2,-9.15 z m 53.24991,-14.7 q 0,12.75 4.8,19.8 4.8,7.05 13.8,7.05 9.15,0 18,-6.45 l 6.45,11.55 q -10.65,8.7 -26.7,8.7 -16.05,0 -25.35,-10.05 -9.15,-10.2 -9.15,-30 0,-19.8 10.5,-29.7 10.65,-10.05 23.85,-10.05 13.35,0 24.75,6.15 v 19.5 l -13.8,1.05 v -7.2 q 0,-4.05 -3,-4.95 -2.85,-1.05 -6,-1.05 -18.15,0 -18.15,25.65 z m 69.1501,-52.8 h 9.75 v 15.9 h 19.95 l -1.5,12.6 h -18.45 v 39.45 q 0,6.6 2.4,9.3 2.4,2.55 7.35,2.55 5.1,0 10.2,-3.15 l 4.5,11.55 q -7.5,5.25 -19.05,5.25 -6.75,0 -11.4,-1.8 -4.65,-1.65 -6.9,-3.75 -2.25,-2.1 -3.45,-6.15 -1.2,-4.05 -1.35,-6.3 -0.15,-2.4 -0.15,-6.9 v -40.05 h -10.65 l 1.5,-10.95 q 7.05,-0.6 10.65,-4.95 3.6,-4.5 6.6,-12.6 z m 71.40005,80.4 q 16.35,0 16.35,-26.4 0,-13.35 -3.75,-20.25 -3.6,-6.9 -12.3,-6.9 -8.55,0 -12.6,6.6 -4.05,6.6 -4.05,18 0,21.15 7.8,26.55 3.45,2.4 8.55,2.4 z m -34.5,-26.85 q 0,-11.1 3.3,-19.2 3.3,-8.25 8.85,-12.6 10.65,-8.1 23.55,-8.1 9,0 15.15,3 6.3,2.85 9.75,6.75 3.6,3.75 6,11.1 2.55,7.2 2.55,17.1 0,20.7 -10.05,31.35 -10.05,10.65 -25.8,10.65 -15.6,0 -24.45,-10.05 -8.85,-10.2 -8.85,-30 z m 88.49998,21 v -41.55 q 0,-2.4 -0.9,-3.3 -0.75,-1.05 -2.85,-1.2 l -6.3,-0.45 v -12.15 h 25.35 v 11.25 q 2.7,-5.85 8.4,-9.6 5.7,-3.9 13.05,-3.9 7.5,0 14.25,3.3 v 22.35 l -13.95,1.05 v -6.9 q 0,-3 -1.5,-3.75 -1.65,-0.75 -4.05,-0.75 -6,0 -9.9,4.35 -3.75,4.2 -3.75,10.8 v 34.8 l 13.05,0.6 V 0 h -40.2 v -11.4 l 4.95,-0.45 q 2.25,-0.3 3.3,-1.2 1.05,-1.05 1.05,-3.75 z m 115.19999,13.95 v -11.4 q -8.25,11.7 -24.3,11.7 -23.25,0 -23.25,-25.95 v -30.15 q 0,-4.05 -3.75,-4.2 l -4.8,-0.3 v -12.3 h 26.4 v 43.05 q 0,7.95 2.25,12 2.25,4.05 9.3,4.05 7.05,0 11.25,-4.35 4.35,-4.35 4.35,-10.5 v -27.15 q 0,-2.55 -0.9,-3.45 -0.75,-1.05 -2.85,-1.05 l -4.8,-0.3 v -12.3 h 26.4 v 72.6 q 0,18.15 -8.85,26.55 -8.7,8.4 -26.55,8.4 -17.7,0 -27.6,-4.95 V 6.3 l 14.25,-1.2 v 7.2 q 0,4.05 3.75,5.4 3.75,1.5 10.35,1.5 19.35,0 19.35,-22.05 z M 529.9499,0 v -12.15 l 4.95,-0.45 q 4.35,-0.45 4.35,-4.2 v -69.75 l -8.55,-0.45 v -12.75 h 42.9 q 16.8,0 26.1,7.95 9.45,7.8 9.45,23.55 0,15.75 -10.65,24.6 -10.65,8.7 -28.2,8.7 h -12.75 v 21.75 l 14.4,0.45 V 0 Z m 27.6,-49.5 h 10.8 q 21.9,0 21.9,-17.85 0,-10.8 -5.7,-14.25 -5.55,-3.6 -17.85,-3.6 h -9.15 z m 140.55006,37.65 V 0 h -24.3 v -9.75 q -8.25,11.7 -24.3,11.7 -23.25,0 -23.25,-25.95 v -34.65 q 0,-4.05 -3.75,-4.2 l -4.8,-0.3 v -12.3 h 26.4 v 47.55 q 0,7.95 2.25,12 2.25,4.05 9.3,4.05 7.05,0 11.25,-4.35 4.35,-4.35 4.35,-10.5 v -31.65 q 0,-2.4 -0.9,-3.3 -0.75,-1.05 -2.85,-1.2 l -4.8,-0.3 v -12.3 h 26.4 v 58.8 q 0,2.4 0.75,3.3 0.75,0.75 3,1.05 z m 35.99991,-95.1 v 94.5 l 8.55,0.45 V 0 h -35.7 v -11.4 l 4.95,-0.45 q 4.35,-0.45 4.35,-4.8 V -90.6 q 0,-3.3 -3.75,-3.6 l -5.25,-0.3 v -12.45 z m 57.15007,42.9 q -3.6,-1.35 -8.7,-1.35 -5.1,0 -8.25,2.4 -3,2.25 -3,5.7 0,3.3 1.05,5.25 1.2,1.8 3.6,3.15 3.75,1.95 9,3.45 5.25,1.35 7.8,2.25 2.55,0.75 6.3,2.7 3.9,1.95 5.85,4.2 5.25,5.55 5.25,14.25 0,11.25 -8.25,17.7 -8.1,6.3 -20.7,6.3 -18.3,0 -27.6,-4.65 v -20.85 l 13.5,-1.05 v 7.2 q 0,6.6 12.6,6.6 12.6,0 12.6,-9.15 0,-3.3 -2.25,-5.4 -2.1,-2.1 -4.2,-2.85 -2.1,-0.75 -5.1,-1.5 -2.85,-0.75 -5.7,-1.5 -2.7,-0.75 -6,-1.95 -3.15,-1.35 -7.05,-3.75 -7.65,-4.95 -7.65,-16.5 0,-11.7 8.25,-18 8.25,-6.3 20.7,-6.3 12.6,0 24.9,6 v 18 l -13.5,1.05 v -6.3 q 0,-3.75 -3.45,-5.1 z m 66.00002,-13.65 q 11.25,0 17.85,5.55 6.6,5.4 6.6,15.3 0,6.6 -2.85,11.7 -2.85,4.95 -7.05,7.8 -4.2,2.85 -10.2,4.65 -10.05,3 -22.65,3 0.45,7.95 4.95,12.9 4.5,4.8 13.8,4.8 9.3,0 18.6,-6.6 l 5.7,12.15 q -3,2.7 -10.2,5.55 -7.05,2.85 -16.2,2.85 -18.3,0 -26.85,-10.05 -8.55,-10.2 -8.55,-27.9 0,-17.7 9.75,-29.7 9.75,-12 27.3,-12 z m -6.9,34.35 q 5.55,-1.05 10.2,-4.35 4.65,-3.45 4.65,-8.1 0,-9.15 -9,-9.15 -8.4,0 -12.9,6.75 -4.5,6.6 -4.95,15.9 6.6,-0.15 12,-1.05 z"
         id="text8"
         style="font-size:150px;font-family:f1;fill:url(#stgra_3864)"
         transform="scale(1.6514286)"
         aria-label="FactoryPulse" />
    </g>
  </g>
</svg>
